<?xml version="1.0" encoding="utf-8"?>
<!-- Generator: Adobe Illustrator 25.1.0, SVG Export Plug-In . SVG Version: 6.00 Build 0)  -->
<svg version="1.1" id="Layer_1" xmlns="http://www.w3.org/2000/svg" xmlns:xlink="http://www.w3.org/1999/xlink" x="0px" y="0px"
	 viewBox="0 0 100 125" style="enable-background:new 0 0 100 125;" xml:space="preserve">
<path d="M78.8,79.6c0.3,0.3,0.5-1.1,0.5-1.6s0.4-2.4,1-2.8s3.6,0.2,3.8-0.2s0-1.2-0.7-1.8s-1.9-1.3-1.8-1.6s0.8,0,0.9-0.3
	s-0.2-1.3,0.1-1.6s4.9,0.2,5.9-0.2s2.1-2.7,2.8-2.6s0.9,0.2,1.2-0.3s-0.4-1.9,0.1-2.9s2.6-3.4,2.5-4.2s-0.6-1.1-2.4-1.3
	s-2.2-0.4-3,0s-3.4,0.3-4.2,1s-0.6,3.3-1.2,4s-0.3,1.1-0.8,1.8c-1,1-2.2,1.7-3.5,2.1c-0.8,0-3.1,0.6-4.2,0.7s-2.9,1.2-3.6,0.8
	s-1.7-1.6-2.8-1.8s-2.5-0.9-2.8-2.1c-0.4-1.2-1-2.4-1.8-3.4c-0.8-0.9-1.2-2-1.3-3.1c0.1-0.9-1.3-1.2-1.3-2.9s-0.4-8.5,0.3-9.5
	s1.6-0.5,1.6-1.4s-0.5-0.6-1.8-1s-3.4-0.9-4-1.9s-0.6-2.9-1.1-3.4c-0.9-0.7-1.7-1.6-2.2-2.6C54,34,54,33.2,53.4,32.6s-1-0.7-1.6-1.3
	s-1.3-1-3.2-0.8s-0.5,1.5-2,2.5c-0.9,0.7-1.5-0.6-2.5-0.8c-1.1-0.3-2-1.1-2.4-2.1c-0.1-0.8-0.4-1.7-0.9-2.4c-0.6-0.8-2.9-2-3.7-3
	s-1.6-0.9-3.4-1.1s-2.4,0-2.5,0.8s-0.9,0.7-1.5,0.8s-7.3,0-8.8-0.6s-8.6-2.9-9-3.3s-0.5-0.9-1.2-0.9S5,20.7,5,21.2s1.3,1.8,1.3,2.2
	c0.7,2.5,1.7,4.8,2.9,7.1c0.8,0.9,4.7,3.4,4.7,5.1S12,37,11.6,37.4s2.5,3.1,3.4,3.2s1.1-0.3,1.9,0.6s1.5,0.9,2.1,1.6
	c1.4,1.2,0.3,4,0.9,4.4s3.5,3,4.4,3.6c0.7,0.4,1.2,1,1.4,1.7c0.4,0.9,0.6,0.7,0.9,0.5s1.5-0.7,0.7-1.5s-1.8-2.8-2.1-2.4
	s-1.2,0.2-1.4-0.3s0.1-1.5-0.1-2c-0.7-1-1.3-2-1.8-3.1c-0.3-0.9-0.1-1.6-1-2.6S17.9,38,17.6,37c-0.1-0.8-0.4-1.6-1-2.3
	c-0.7-0.8-1.7-3-2.4-3.3s-1.9-0.8-2.2-1.8s0.1-1.7-0.3-2.8s-0.6-1.4-0.4-2s-0.2-1.5,0.7-1.2s1.2,0.8,1.7,0.8s0.8-0.4,1.4,0.1
	s1,0.3,1.4,1s0.1,1.5,0.5,2.2s3.6,7.4,5.2,8.4s2.1,0.6,2.2,1.6s0.2,1.6,1,1.7s0.8,1.1,1.3,1.3s1.2,0,1.4,0.6s-0.8,1.8,0,2.6
	s1.7,0.4,3.2,1.8c1.5,1.4,7.4,8,7.7,8.9s0.1,1.7,0.5,2.3s0.9,1.3,0.8,2s-1.5,1.5-1.2,2.7s1.9,3.3,3.2,3.5s2.4,2.1,3.3,2.6
	s3.6,0.5,4.6,1.2c3.6,2.3,7.4,4.2,11.4,5.6c6.5,2.4,7.2-0.6,9.9-0.4S76.8,77.3,78.8,79.6z"/>
</svg>
