<?xml version="1.0" encoding="utf-8"?>
<!-- Generator: Adobe Illustrator 25.1.0, SVG Export Plug-In . SVG Version: 6.00 Build 0)  -->
<svg version="1.1" id="Layer_1" xmlns="http://www.w3.org/2000/svg" xmlns:xlink="http://www.w3.org/1999/xlink" x="0px" y="0px"
	 viewBox="0 0 50 43.8" style="enable-background:new 0 0 50 43.8;" xml:space="preserve">
<g>
	<path d="M38.2,29.4c-0.1,0-0.3,0-0.4,0h-0.1c-1.7-0.2-2.8-1.2-3.4-2.7c-0.2-0.6-0.3-1.2-0.2-1.9C34,24.9,34,24.9,33.9,25
		c-0.2,0.4-0.5,0.7-0.8,1.1c-0.1,0.2-0.3,0.3-0.5,0.3c-5.1,0-10.3,0-15.4,0c-0.2,0-0.4-0.1-0.5-0.3c-0.2-0.4-0.4-0.7-0.7-1.1
		c0,0.1,0,0.1,0,0.2c0.1,1.7-0.9,3.2-2.4,3.9c-0.4,0.2-0.9,0.2-1.3,0.3c-0.1,0-0.3,0-0.5,0c0,0-0.1,0-0.2,0
		c-1.5-0.2-2.6-0.9-3.2-2.3c-0.2-0.4-0.3-0.8-0.4-1.2c-0.2,0.3-0.2,0.3-0.7,0.3c0,0,0,0-0.1,0S7,26.2,7,26.3c-0.1,0.5-0.5,0.8-1,0.9
		c-0.2,0-0.4,0-0.6,0c-0.9,0-1.8,0-2.7,0c-0.6,0-1.1-0.3-1.2-0.9c-0.2-0.5,0-1.1,0.4-1.4c0,0,0-0.1,0-0.2c0-0.6,0-1.2,0-1.9
		c0-0.2,0-0.5,0-0.8c-0.4,0-0.6-0.2-0.7-0.5c0-0.5,0-1,0-1.5c0.2-0.4,0.5-0.6,1-0.5C2.7,15.6,3.8,11.9,6,8.6c-0.2,0-0.3,0-0.5,0
		C5,8.7,4.8,8.5,5,8.3c0.5-1,1.2-1.8,2.3-2.3c0.5-0.2,1-0.3,1.5-0.4c11.1,0,22.2,0,33.3,0h0.1c0.9,0.1,1.7,0.5,2.4,1.1
		c0.5,0.5,1.1,0.9,1.6,1.4c0.1,0.1,0.2,0.2,0.2,0.4S46.2,8.7,46,8.7l0,0c0.3,0.4,0.6,0.8,0.8,1.2c1.1,1.8,1.6,3.9,1.9,5.9
		c0.2,1.6,0.3,3.2,0.2,4.9c-0.1,1.4-0.2,2.8-0.3,4.3c0,0.1,0,0.2,0.1,0.3c0.1,0.1,0.3,0.3,0.3,0.5c0.1,0.6-0.3,1.1-0.9,1.1
		c-0.7,0-1.4,0-2.2,0c-0.3,0-0.6-0.1-0.8-0.5c0-0.1-0.1-0.1-0.3-0.1c-0.3,0-0.6,0-1,0c-0.1,0-0.2,0-0.3-0.1
		c-0.3-0.3-0.6-0.6-0.9-0.9c-0.1-0.1-0.3-0.3-0.5-0.5c0,0.1,0,0.1,0,0.2c0.1,1.8-1,3.5-2.7,4.1C39,29.3,38.6,29.3,38.2,29.4z
		 M2.2,24.9c0.1,0,0.2,0,0.3,0c1.1,0,2.2,0,3.3,0c0.4,0,0.8,0.2,1,0.6c0.1,0.2,0.2,0.1,0.4,0.1c0.1,0,0.2,0,0.2-0.2
		c0.2-0.6,0.5-1.2,0.7-1.8c0.2-0.5,0.6-0.8,1.2-0.8c1.7,0,3.3,0,5,0c0.6,0,1.1,0.2,1.4,0.8c0.4,0.7,0.8,1.3,1.2,2
		c0.1,0.1,0.2,0.2,0.4,0.2c3.8,0,7.6,0,11.4,0c1.2,0,2.4,0,3.6,0c0.2,0,0.3,0,0.4-0.2c0.2-0.3,0.5-0.7,0.7-1.1
		c0.3-0.4,0.6-0.6,1.1-0.6c2.3,0,4.5,0,6.7,0c0.4,0,0.7,0.1,1,0.4c0.4,0.4,0.9,0.9,1.3,1.3c0,0,0.1,0.1,0.2,0.1c0.3,0,0.5,0,0.8,0
		c0,0,0.1,0,0.1-0.1c0.1-0.4,0.5-0.5,0.9-0.5c0.6,0,1.2,0,1.9,0c0.1,0,0.2,0,0.2-0.2c0-0.7,0.1-1.5,0.2-2.2c0.2-2.1,0.2-4.2,0-6.2
		c0-0.1,0-0.2-0.2-0.2c-0.9,0-1.8,0-2.6,0c-1.9,0-3.8,0-5.7,0c-1.8,0-3.6,0-5.4,0c-2.3,0-4.5,0-6.7,0c-3.1,0-6.1,0-9.2,0
		c-0.1,0-0.1,0-0.2,0c0,0.1,0,0.2,0,0.3c0,1.7,0,3.5,0,5.2c0,0.5,0,0.5-0.5,0.5c-3.2,0-6.4,0-9.6,0c-0.2,0-0.3,0-0.3,0.2
		c-0.2,0.5-0.5,1-0.8,1.4c-0.1,0.1-0.2,0.2-0.3,0.2c-1.3,0-2.7,0-4,0c-0.1,0-0.1,0-0.2,0C2.2,24.4,2.2,24.6,2.2,24.9z M47.8,14.7
		c0-0.1,0-0.1,0-0.2c-0.2-0.9-0.5-1.8-0.8-2.7c-0.4-1-0.9-2-1.8-2.8c-0.1-0.1-0.3-0.2-0.5-0.2c-8.8,0-17.7,0-26.5,0
		c-0.1,0-0.2,0-0.3,0c0,2,0,3.9,0,5.9C28,14.7,37.9,14.7,47.8,14.7z M2.2,23.8c1.4,0,2.8,0,4.2,0c0,0,0.1-0.1,0.2-0.1
		c0.3-0.5,0.5-1,0.8-1.5C7.5,22,7.6,22,7.8,22c3.2,0,6.4,0,9.6,0c0.1,0,0.2,0,0.2,0c0-1.9,0-3.8,0-5.6c-0.1,0-0.2,0-0.2,0
		c-3.3,0-6.5,0-9.8,0.1c-0.8,0-1.6,0-2.3,0.2c-0.9,0.2-1.7,0.5-2.3,1.2c-0.2,0.2-0.3,0.4-0.4,0.7c-0.1,1.3-0.2,2.6-0.3,3.8
		C2.2,22.7,2.2,23.2,2.2,23.8z M5.6,8.2c13.3,0,26.5,0,39.7,0c-0.4-0.4-0.8-0.7-1.2-1c-0.8-0.6-1.7-1-2.7-1c-10.8,0-21.6,0-32.3,0
		c-0.4,0-0.9,0.1-1.3,0.2C6.8,6.7,6.1,7.3,5.6,8.2z M14.8,12.5c0-1.2,0-2.5,0-3.6c0,0,0,0-0.1,0c-2,0-3.9,0-5.9,0
		C8.7,8.8,8.6,8.9,8.6,9c-0.4,1.3-0.8,2.6-1.2,3.8C7.2,13.4,7,14,6.8,14.7c2.2,0,4.3,0,6.4,0c0-0.5,0-1.1,0-1.6
		c0-0.4,0.2-0.6,0.6-0.6C14.2,12.5,14.5,12.5,14.8,12.5z M11.9,23.5c-0.8,0-1.6,0-2.5,0c-0.3,0-0.6,0.1-0.7,0.4
		c-0.3,0.7-0.4,1.3-0.3,2.1c0.3,1.4,1.1,2.4,2.5,2.8s2.7,0,3.6-1.1c0.9-1.1,1.1-2.4,0.5-3.7c-0.1-0.4-0.4-0.5-0.8-0.5
		C13.5,23.5,12.7,23.5,11.9,23.5z M48.1,16.1c0-0.1,0-0.3,0-0.5s-0.1-0.3-0.3-0.3c-9.8,0-19.6,0-29.4,0c-0.1,0-0.2,0-0.2,0
		c0,0.2,0,0.4,0,0.5C28,16,38.1,16,48.1,16.1z M39.6,24.5c0.4,1.1,0.2,1.9-0.4,2.4c-0.6,0.5-1.5,0.5-2.2,0s-0.9-1.2-0.5-2.5
		c-0.6,0-1.2,0-1.8,0l0,0v0.1c-0.1,0.8,0,1.5,0.3,2.2c1,1.9,3.3,2.5,5,1.3c1.2-0.9,1.7-2.1,1.5-3.5c0-0.1,0-0.2-0.1-0.2
		C40.7,24.5,40.2,24.5,39.6,24.5z M3.4,14.7c0.1,0,0.2,0,0.3,0c0.8,0,1.7,0,2.6,0c0.2,0,0.2,0,0.3-0.2c0.5-1.8,1.1-3.5,1.7-5.3
		c0-0.1,0.1-0.2,0.1-0.4c-0.6,0-1.2,0-1.8,0c-0.1,0-0.2,0-0.3,0.2c-0.8,1.2-1.5,2.4-2,3.7C3.9,13.4,3.7,14,3.4,14.7z M2.8,17.4
		L2.8,17.4C2.8,17.4,2.9,17.4,2.8,17.4c1-0.9,2.2-1.3,3.4-1.4c1.1,0,2.2,0,3.3-0.1c2.1,0,4.2,0,6.2,0c0.5,0,1.1,0,1.7,0
		c0.1,0,0.1,0,0.2,0c0-0.2,0-0.4,0-0.6c-0.1,0-0.2,0-0.3,0c-4.6,0-9.2,0-13.8,0c0,0-0.1,0-0.2,0c0,0-0.1,0-0.1,0.1
		C3.1,16.1,2.9,16.7,2.8,17.4z M4,25.5c-0.6,0-1.2,0-1.8,0c-0.4,0-0.6,0.2-0.5,0.6c0,0.4,0.4,0.7,0.8,0.7c1,0,2,0,2.9,0
		c0.2,0,0.4,0,0.5-0.1c0.2-0.1,0.3-0.5,0.3-0.8c-0.1-0.2-0.3-0.3-0.6-0.3C5.1,25.5,4.5,25.5,4,25.5z M16.7,8.8c0,2,0,3.9,0,5.9
		c0.3,0,0.6,0,0.9,0c0-2,0-3.9,0-5.9C17.3,8.8,17,8.8,16.7,8.8z M15.2,8.8c0,2,0,3.9,0,5.8c0.3,0,0.6,0,0.8,0c0-2,0-3.9,0-5.8
		C15.8,8.8,15.5,8.8,15.2,8.8z M38,24.5L38,24.5c-0.2,0-0.4,0-0.6,0c-0.5,0-0.6,0.1-0.7,0.6c0,0.2,0,0.4,0,0.6c0,0.5,0.5,1,1.1,1.1
		c0.5,0.1,1.1-0.1,1.4-0.6c0.3-0.5,0.2-1.1-0.1-1.5c0,0-0.1-0.1-0.2-0.1C38.5,24.5,38.3,24.5,38,24.5z M14.8,14.7c0-0.6,0-1.2,0-1.9
		c-0.3,0-0.7,0-1,0l-0.1,0.1c0,0.6,0,1.1,0,1.7C14,14.7,14.4,14.7,14.8,14.7z M46.9,25.8c-0.4,0-0.8,0-1.2,0c-0.2,0-0.4,0.2-0.3,0.4
		c0.1,0.2,0.2,0.3,0.4,0.3c0.6,0,1.3,0,2,0c0,0,0.1,0,0.2,0c0.2,0,0.3-0.3,0.3-0.4c0-0.2-0.2-0.2-0.4-0.2
		C47.6,25.8,47.3,25.8,46.9,25.8z M1.8,20c-0.3,0-0.6,0-0.6,0.3c0,0.4,0,0.8,0,1.2c0,0.2,0.2,0.3,0.4,0.3C1.7,21.3,1.8,20.6,1.8,20z
		"/>
	<path d="M43.6,21.2c0.5,0,1,0,1.4,0c0.2,0,0.3,0.1,0.3,0.3s-0.1,0.3-0.3,0.3c-1,0-2,0-2.9,0c-0.2,0-0.3-0.1-0.3-0.3
		c0-0.2,0.1-0.3,0.3-0.3C42.6,21.2,43.1,21.2,43.6,21.2z"/>
	<path d="M43.6,20.6c-0.5,0-1,0-1.5,0c-0.2,0-0.3-0.1-0.3-0.2s0.1-0.3,0.3-0.3c1,0,2,0,2.9,0c0.2,0,0.3,0.1,0.3,0.3
		c0,0.2-0.1,0.3-0.3,0.3C44.6,20.6,44.1,20.6,43.6,20.6z"/>
	<path d="M43.6,19.4c-0.5,0-1,0-1.5,0c-0.2,0-0.3,0-0.3-0.2c0-0.1,0.1-0.3,0.3-0.3c1,0,2,0,2.9,0c0.2,0,0.3,0.1,0.3,0.3
		c0,0.2-0.1,0.2-0.3,0.2C44.6,19.4,44.1,19.4,43.6,19.4z"/>
	<path d="M43.6,18.3c-0.5,0-1,0-1.5,0c-0.2,0-0.3,0-0.3-0.2c0-0.1,0.1-0.3,0.3-0.3c1,0,2,0,2.9,0c0.2,0,0.3,0.1,0.3,0.3
		s-0.1,0.2-0.3,0.2C44.6,18.3,44.1,18.3,43.6,18.3z"/>
	<path d="M43.6,12c-0.5,0-1,0-1.4,0c-0.2,0-0.4-0.1-0.4-0.3s0.1-0.3,0.4-0.3c1,0,1.9,0,2.9,0c0.2,0,0.4,0.1,0.4,0.3S45.4,12,45.1,12
		C44.6,12,44.1,12,43.6,12z"/>
	<path d="M43.6,10.9c-0.5,0-1,0-1.4,0c-0.2,0-0.4-0.1-0.3-0.3c0-0.1,0.1-0.2,0.3-0.2c1,0,1.9,0,2.9,0c0.2,0,0.4,0.1,0.3,0.3
		c0,0.2-0.1,0.2-0.3,0.2C44.6,10.9,44.1,10.9,43.6,10.9z"/>
	<path d="M11.8,27.3c-1,0-1.8-0.8-1.8-1.8s0.8-1.8,1.9-1.8c1,0,1.8,0.9,1.7,1.9C13.7,26.6,12.8,27.3,11.8,27.3z M11.9,26.9
		c0.7,0,1.4-0.6,1.4-1.4c0-0.7-0.6-1.4-1.4-1.4c-0.7,0-1.4,0.6-1.4,1.4S11.1,26.9,11.9,26.9z"/>
	<g>
		<path d="M38,24.6V25c0.1,0,0.3,0,0.4,0.1c0.1,0.1,0.1,0.2,0.1,0.4c0,0.3-0.2,0.5-0.5,0.5c-0.1,0-0.3,0-0.4-0.1
			c-0.1-0.1-0.1-0.2-0.1-0.4c0-0.3,0.2-0.5,0.5-0.5V24.6 M38,24.6c-0.5,0-0.9,0.4-0.9,0.9s0.4,0.9,0.9,0.9l0,0
			c0.5,0,0.9-0.4,0.9-0.9S38.5,24.6,38,24.6L38,24.6L38,24.6z"/>
	</g>
	<g>
		<path d="M11.9,25c0.1,0,0.3,0,0.4,0.1c0.1,0.1,0.1,0.2,0.1,0.4c0,0.3-0.2,0.5-0.5,0.5c-0.1,0-0.3,0-0.4-0.1
			c-0.1-0.1-0.1-0.2-0.1-0.4C11.3,25.2,11.6,25,11.9,25L11.9,25 M11.9,24.6c-0.5,0-0.9,0.4-0.9,0.9s0.4,0.9,0.9,0.9l0,0
			c0.5,0,0.9-0.4,0.9-0.9C12.8,25,12.4,24.6,11.9,24.6L11.9,24.6L11.9,24.6z"/>
	</g>
	<path d="M26.2,8.8v5.9h0.4V8.8C26.4,8.8,26.3,8.8,26.2,8.8z"/>
	<path d="M34.7,8.6v6.2h0.4V8.6C34.8,8.6,34.7,8.6,34.7,8.6z"/>
</g>
</svg>
