<?xml version="1.0" encoding="utf-8"?>
<!-- Generator: Adobe Illustrator 25.1.0, SVG Export Plug-In . SVG Version: 6.00 Build 0)  -->
<svg version="1.1" id="Layer_1" xmlns="http://www.w3.org/2000/svg" xmlns:xlink="http://www.w3.org/1999/xlink" x="0px" y="0px"
	 viewBox="0 0 64 80" style="enable-background:new 0 0 64 80;" xml:space="preserve">
<g>
	<g>
		<path d="M31.8,51.1c-18,0-21.8-7.1-21.8-13C10,28.1,20.6,19,32.2,19S54,27.9,54,38.1C54,46.6,46.3,51.1,31.8,51.1z M32.2,20.4
			c-10.8,0-20.7,8.5-20.7,17.7c0,7.7,6.8,11.6,20.2,11.6c9.5,0,20.7-2,20.7-11.6C52.5,28.6,43,20.4,32.2,20.4z"/>
	</g>
	<g>
		<path d="M30.9,39.6c-0.8-0.5-1.3-1.2-1.5-2.1c-0.1-0.5,0.2-1.1,0.9-1.2c1.1-0.3,2.2-0.3,3.3,0c0.7,0.2,1.1,0.7,1,1.2
			c-0.2,0.8-0.8,1.5-1.6,2.1C32.4,40,31.5,40,30.9,39.6z"/>
		<path d="M31.9,40.6c-0.5,0-1.1-0.1-1.5-0.4l0,0c-0.9-0.6-1.5-1.4-1.8-2.4c-0.2-0.9,0.4-1.8,1.5-2c1.2-0.3,2.5-0.3,3.8,0
			c1.1,0.3,1.7,1.2,1.5,2.1c-0.3,1-0.9,1.8-1.9,2.4C33,40.4,32.4,40.6,31.9,40.6z M31.3,39c0.3,0.2,0.9,0.2,1.2,0
			c0.7-0.4,1.2-1,1.3-1.7c0-0.2-0.1-0.3-0.4-0.4c-1-0.3-1.9-0.3-2.9,0c-0.3,0.1-0.5,0.3-0.4,0.4C30.3,38.1,30.7,38.7,31.3,39
			L31.3,39z"/>
	</g>
	<g>
		<path d="M39.7,26.9c3.8,0.1,5.8,1.7,6.2,4.8c0.2,1.4-0.9,2.7-2.5,2.8c-1.3,0.1-2.2-0.8-2.9-2.1c-0.3-0.5-0.7-0.9-1.3-1
			C35.7,30.4,36.5,27,39.7,26.9z"/>
		<path d="M43.2,35.1c-1.8,0-2.8-1.3-3.4-2.5c-0.2-0.3-0.5-0.6-0.8-0.7c-2.3-0.6-2.9-2.1-2.8-3.2c0.2-1.4,1.6-2.4,3.4-2.5l0,0
			c4.1,0.1,6.4,1.9,6.9,5.4c0.1,0.9-0.2,1.8-0.8,2.5c-0.6,0.6-1.4,1-2.3,1C43.3,35.1,43.3,35.1,43.2,35.1z M39.7,27.6
			c-1.2,0-1.9,0.7-2,1.3c-0.1,0.8,0.5,1.4,1.7,1.7c0.8,0.2,1.4,0.7,1.8,1.4c0.8,1.5,1.4,1.8,2.2,1.8c0.5,0,0.9-0.2,1.3-0.6
			c0.4-0.4,0.6-0.9,0.5-1.5C44.7,29,43,27.7,39.7,27.6z"/>
	</g>
	<g>
		<path d="M24.6,27c-3.8,0.1-5.8,1.7-6.2,4.8c-0.2,1.4,0.9,2.7,2.5,2.8c1.3,0.1,2.2-0.8,2.9-2.1c0.3-0.5,0.7-0.9,1.3-1
			C28.5,30.4,27.7,27.1,24.6,27z"/>
		<path d="M21,35.2c-0.1,0-0.1,0-0.2,0c-0.9,0-1.7-0.4-2.3-1c-0.6-0.7-1-1.6-0.8-2.5c0.5-3.4,2.8-5.3,6.9-5.4l0,0
			c1.8,0.1,3.2,1.1,3.4,2.5c0.2,1.1-0.5,2.6-2.8,3.2c-0.4,0.1-0.7,0.3-0.8,0.7C23.8,33.8,22.9,35.2,21,35.2z M24.6,27.6
			c-3.3,0.1-5,1.4-5.4,4.2c-0.1,0.5,0.1,1.1,0.5,1.5c0.3,0.3,0.8,0.5,1.3,0.6c0.7,0,1.4-0.3,2.2-1.8c0.4-0.7,1-1.2,1.8-1.4
			c1.2-0.3,1.8-1,1.7-1.7C26.4,28.3,25.8,27.7,24.6,27.6z"/>
	</g>
	<g>
		<g>
			<path d="M22.4,21.9L22.4,21.9c0-0.1,0-0.3,0-0.4c0.2-2.5-2-4.6-4.8-4.7s-5.3,1.7-5.4,4.2c-0.2,2.4,1.9,4.4,4.6,4.7"/>
			<path d="M16.8,26.3c-3.2-0.3-5.5-2.7-5.3-5.4c0.2-2.8,3-5,6.2-4.8c1.6,0.1,3.1,0.7,4.1,1.8c1,1,1.5,2.3,1.4,3.7V22l-1.5-0.1v-0.5
				c0.1-1-0.3-1.9-1-2.6c-0.8-0.8-1.9-1.3-3.1-1.3C15.2,17.4,13.1,19,13,21s1.6,3.8,3.9,4L16.8,26.3z"/>
		</g>
		<g>
			<path d="M47.4,25.6c2.4-0.3,4.3-2,4.4-4.1c0.2-2.5-2-4.6-4.8-4.7s-5.3,1.7-5.4,4.2c0,0.3,0,0.5,0,0.7"/>
			<path d="M47.5,26.3L47.3,25c2.1-0.2,3.6-1.7,3.7-3.5c0.1-1-0.3-1.9-1-2.7c-0.8-0.8-1.9-1.3-3.1-1.3c-2.4-0.1-4.5,1.5-4.6,3.5
				c0,0.2,0,0.4,0,0.6l-1.5,0.2c0-0.3,0-0.6,0-0.9c0.2-2.8,3-5,6.2-4.8c1.6,0.1,3.1,0.7,4.1,1.8c1,1,1.5,2.3,1.4,3.7
				C52.4,24,50.3,26,47.5,26.3z"/>
		</g>
	</g>
</g>
</svg>
