<?xml version="1.0" encoding="utf-8"?>
<!-- Generator: Adobe Illustrator 25.1.0, SVG Export Plug-In . SVG Version: 6.00 Build 0)  -->
<svg version="1.1" id="Layer_1" xmlns="http://www.w3.org/2000/svg" xmlns:xlink="http://www.w3.org/1999/xlink" x="0px" y="0px"
	 viewBox="0 0 62 82.5" style="enable-background:new 0 0 62 82.5;" xml:space="preserve">
<style type="text/css">
	.st0{fill:none;}
</style>
<desc>Created with Sketch.</desc>
<g>
	<g transform="translate(-419.000000, -57.000000)">
		<path d="M472,87c3.9,0,7,3.1,7,7c0,1.6-0.5,3.1-1.5,4.4c2.3,2.7,3.5,6.1,3.5,9.6c0,8.3-6.7,15-15,15s-15-6.7-15-15
			c0-3.6,1.3-7,3.5-9.6c-1-1.2-1.5-2.7-1.5-4.4c0-3.9,3.1-7,7-7h2V71c-0.3,0-0.6-0.2-0.8-0.4c-1.4-2.2-2.2-4.3-2.2-6.6
			s0.7-4.4,2.2-6.6c0.2-0.3,0.5-0.4,0.8-0.4h8c0.3,0,0.6,0.2,0.8,0.4c1.4,2.2,2.2,4.3,2.2,6.6s-0.7,4.4-2.2,6.6
			c-0.2,0.3-0.5,0.4-0.8,0.4v16H472z M461,64c0,1.6,0.5,3.3,1.5,5h0.5c0.6,0,1,0.4,1,1v17h4V70c0-0.6,0.4-1,1-1h0.5
			c1-1.7,1.5-3.4,1.5-5c0-1.6-0.5-3.3-1.5-5h-6.9C461.5,60.7,461,62.4,461,64z M456.6,97.6c0.4,0.4,0.4,1,0,1.4
			c-2.3,2.4-3.6,5.6-3.6,9c0,7.2,5.8,13,13,13s13-5.8,13-13c0-3.4-1.3-6.6-3.6-9c-0.4-0.4-0.4-1,0-1.4c1-0.9,1.6-2.2,1.6-3.6
			c0-2.8-2.2-5-5-5h-12c-2.8,0-5,2.2-5,5C455,95.4,455.6,96.7,456.6,97.6z M430,117V84.8l-4.3,3.4c-1.6,1.3-3.9,1.1-5.3-0.3
			l-0.2-0.2c-1.4-1.4-1.6-3.7-0.3-5.3l9.2-11.7c0-0.2,0-0.4,0-0.6c0-5,4-9,9-9s9,4,9,9s-4,9-9,9c-0.2,0-0.4,0-0.6,0l-5.4,4.2V117h7
			c0.6,0,1,0.4,1,1s-0.4,1-1,1h-16c-0.6,0-1-0.4-1-1s0.4-1,1-1H430z M429.6,73.2l-8.1,10.4c-0.6,0.8-0.6,1.9,0.2,2.6l0.2,0.2
			c0.7,0.7,1.9,0.8,2.6,0.2l10.4-8.1C432.4,77.5,430.5,75.6,429.6,73.2z M438,77c3.9,0,7-3.1,7-7s-3.1-7-7-7s-7,3.1-7,7
			S434.1,77,438,77z M466,106c-2.8,0-5-2.2-5-5s2.2-5,5-5s5,2.2,5,5S468.8,106,466,106z M466,104c1.7,0,3-1.3,3-3s-1.3-3-3-3
			s-3,1.3-3,3S464.3,104,466,104z M463,113c-0.6,0-1-0.4-1-1s0.4-1,1-1h6c0.6,0,1,0.4,1,1s-0.4,1-1,1H463z"/>
	</g>
</g>
<rect x="38.7" y="69.9" class="st0" width="24.6" height="20.7"/>
</svg>
