<?xml version="1.0" encoding="utf-8"?>
<!-- Generator: Adobe Illustrator 25.1.0, SVG Export Plug-In . SVG Version: 6.00 Build 0)  -->
<svg version="1.1"
	 id="Layer_1" xmlns:cc="http://creativecommons.org/ns#" xmlns:dc="http://purl.org/dc/elements/1.1/" xmlns:inkscape="http://www.inkscape.org/namespaces/inkscape" xmlns:rdf="http://www.w3.org/1999/02/22-rdf-syntax-ns#" xmlns:sodipodi="http://sodipodi.sourceforge.net/DTD/sodipodi-0.dtd" xmlns:svg="http://www.w3.org/2000/svg"
	 xmlns="http://www.w3.org/2000/svg" xmlns:xlink="http://www.w3.org/1999/xlink" x="0px" y="0px" viewBox="0 0 100 125"
	 style="enable-background:new 0 0 100 125;" xml:space="preserve">
<g transform="translate(0,-952.36218)">
	<path d="M85.5,958.6c0,0-0.1,0-0.1,0c0,0,0,0-0.1,0v0h-0.1l-0.1,0c-0.2,0-0.3,0.1-0.5,0.1l0,0l0,0l-47,18.8l0,0l0,0
		c-0.8,0.3-1.3,1-1.2,1.9h0c0,0,0,0,0,0c0,14.3,0,28.6,0,42.9c-2.5-2.6-6.1-4.2-10-4.2c-7.7,0-14,6.3-14,14c0,7.7,6.3,14,14,14
		c7.7,0,13.9-6.2,14-13.9c0,0,0,0,0,0h0c0,0,0,0,0-0.1h0v-38.3l43-16.2v27.3c-2.5-2.6-6.1-4.2-10-4.2c-7.7,0-14,6.3-14,14
		c0,7.7,6.3,14,14,14c7.6,0,13.8-6.2,14-13.7l0,0v0v-54.3c0,0,0,0,0,0C87.5,959.5,86.6,958.7,85.5,958.6L85.5,958.6z"/>
</g>
</svg>
