<?xml version="1.0" encoding="utf-8"?>
<!-- Generator: Adobe Illustrator 25.1.0, SVG Export Plug-In . SVG Version: 6.00 Build 0)  -->
<svg version="1.1" id="Layer_1" xmlns="http://www.w3.org/2000/svg" xmlns:xlink="http://www.w3.org/1999/xlink" x="0px" y="0px"
	 viewBox="0 0 90 112.5" style="enable-background:new 0 0 90 112.5;" xml:space="preserve">
<g>
	<path d="M61.7,4.6C39.4-4.6,13.8,5.9,4.6,28.3C-4.6,50.6,6,76.2,28.3,85.4S76.2,84,85.4,61.7S84,13.8,61.7,4.6z M75.1,22.8l0.7-0.5
		l0,0c4.8,6.5,7.4,14.3,7.5,22.5v0.1h-1l0,0C82.3,36.8,79.8,29.2,75.1,22.8L75.1,22.8L75.1,22.8z M73.1,24.2l0.7-0.5l0,0
		c4.5,6.1,6.9,13.4,7,21.1v0.1h-1l0,0C79.8,37.3,77.5,30.2,73.1,24.2L73.1,24.2L73.1,24.2z M71.9,25.2c4.2,5.7,6.5,12.5,6.5,19.6
		v0.1h-1l0,0c0-6.9-2.2-13.5-6.3-19l0,0l0,0L71.9,25.2L71.9,25.2z M69.1,27.2L69.1,27.2L69.1,27.2l0.7-0.6l0,0
		c3.9,5.3,6,11.5,6,18.1v0.1h-1l0,0C74.9,38.4,72.9,32.3,69.1,27.2z M67.1,28.7L67.1,28.7L67.1,28.7l0.7-0.6l0,0
		c3.6,4.8,5.5,10.6,5.5,16.7v0.1h-1l0,0C72.4,39,70.6,33.4,67.1,28.7z M65.1,30.2L65.1,30.2L65.1,30.2l0.7-0.6l0,0
		c3.3,4.4,5,9.7,5,15.2v0.1h-1l0,0C69.9,39.5,68.3,34.4,65.1,30.2z M63.1,31.7L63.1,31.7L63.1,31.7l0.7-0.6l0,0
		c3,4,4.6,8.8,4.6,13.8V45h-1l0,0C67.5,40.1,65.9,35.5,63.1,31.7z M61.1,33.1L61.1,33.1L61.1,33.1l0.7-0.6l0,0
		c2.7,3.6,4.1,7.8,4.1,12.3v0.1h-1l0,0C65,40.6,63.6,36.6,61.1,33.1z M59.1,34.6L59.1,34.6L59.1,34.6l0.7-0.6l0,0
		c2.3,3.2,3.6,6.9,3.6,10.9V45h-1l0,0C62.5,41.2,61.3,37.6,59.1,34.6z M45,4.5L45,4.5c4.9,0,9.7,0.8,14.2,2.5s8.6,4.1,12.3,7.3l0,0
		l-0.3,0.3l0,0C67.6,11.5,63.5,9,59,7.4c-4.5-1.7-9.2-2.5-14-2.5l0,0C45,4.9,45,4.5,45,4.5z M45,7L45,7c4.6,0,9.1,0.8,13.3,2.4
		s8.1,3.9,11.5,6.8l0,0l-0.3,0.3l0,0c-3.4-2.9-7.2-5.2-11.4-6.8C53.9,8.2,49.5,7.4,45,7.4l0,0V7z M45,9.5L45,9.5
		c4.3,0,8.5,0.7,12.5,2.2c3.9,1.5,7.6,3.6,10.8,6.4l0,0L68,18.4l0,0c-3.2-2.7-6.8-4.9-10.7-6.3c-3.9-1.5-8-2.2-12.3-2.2l0,0V9.5z
		 M45,12c4,0,7.9,0.7,11.5,2.1c3.7,1.4,7,3.4,10,5.9l0,0l-0.3,0.3l0,0c-3-2.5-6.3-4.5-9.9-5.9c-3.6-1.3-7.5-2-11.4-2l0,0L45,12
		L45,12z M45,14.4L45,14.4c7.4,0,14.5,2.6,20,7.4l0,0l-0.3,0.3l0,0c-5.5-4.7-12.5-7.3-19.7-7.3l0,0C45,14.8,45,14.4,45,14.4z
		 M45,16.9c6.7,0,13.3,2.4,18.3,6.8l0,0L63.1,24l0,0c-5-4.3-11.4-6.7-18.1-6.7l0,0l0,0V16.9L45,16.9z M45,19.4L45,19.4
		c6.2,0,12.1,2.2,16.8,6.2l0,0l-0.3,0.3l0,0c-4.6-4-10.5-6.1-16.5-6.1l0,0V19.4z M45,21.9L45,21.9c5.6,0,11,2,15.2,5.6l0,0l-0.3,0.3
		l0,0c-4.1-3.5-9.4-5.5-14.9-5.5l0,0V21.9z M45,24.3L45,24.3c5,0,9.8,1.8,13.5,5l0,0l-0.3,0.3l0,0c-3.7-3.2-8.4-4.9-13.2-4.9l0,0
		l0,0V24.3z M45,26.8L45,26.8c4.4,0,8.6,1.6,11.9,4.4l0,0l-0.3,0.3l0,0c-3.2-2.8-7.4-4.3-11.6-4.3l0,0V26.8z M16.2,73.9L16.2,73.9
		c-7.7-7.7-12-18-12-28.9l0,0h1l0,0c0,10.6,4.1,20.6,11.7,28.2l0,0L16.2,73.9z M17.9,72.1L17.9,72.1C10.7,64.9,6.7,55.3,6.7,45l0,0
		h1l0,0c0,10,3.9,19.4,10.9,26.4l0,0L17.9,72.1z M19.7,70.4L19.7,70.4C12.9,63.6,9.2,54.6,9.2,45l0,0h1l0,0
		c0,9.3,3.6,18.1,10.2,24.7l0,0L19.7,70.4z M22.1,68l-0.6,0.6l0,0c-6.3-6.3-9.8-14.7-9.8-23.6l0,0h1l0,0C12.6,53.7,16,61.8,22.1,68
		L22.1,68L22.1,68z M23.2,66.9L23.2,66.9C17.3,61,14.1,53.3,14.1,45l0,0h1l0,0c0,8,3.1,15.5,8.7,21.2l0,0L23.2,66.9z M24.9,65.1
		L24.9,65.1c-5.4-5.4-8.3-12.5-8.3-20.1l0,0h1l0,0c0,7.3,2.9,14.2,8,19.4l0,0L24.9,65.1z M27.3,62.7l-0.6,0.6l0,0
		C21.8,58.5,19.1,52,19.1,45l0,0h1l0,0C20,51.7,22.6,58,27.3,62.7L27.3,62.7L27.3,62.7z M29.1,61l-0.6,0.6l0,0
		C24,57.2,21.6,51.3,21.6,45l0,0h1l0,0C22.5,51,24.8,56.7,29.1,61L29.1,61L29.1,61z M30.2,59.9L30.2,59.9c-4-4-6.2-9.3-6.2-14.9l0,0
		h1l0,0c0,5.4,2.1,10.4,5.9,14.2l0,0L30.2,59.9z M32.6,57.5L32,58.1l0,0c-3.5-3.5-5.4-8.1-5.4-13.1l0,0h1l0,0
		C27.5,49.7,29.3,54.1,32.6,57.5L32.6,57.5L32.6,57.5z M39.2,58.9c-7.7-3.2-11.3-12-8.2-19.7c3.2-7.7,12-11.3,19.7-8.2
		c7.7,3.2,11.3,12,8.2,19.7C55.7,58.5,46.9,62.1,39.2,58.9z M57.9,57.9l-0.3-0.3l0,0c2-2,3.5-4.5,4.4-7.3l0,0l0.4,0.1l0,0
		C61.5,53.3,60,55.8,57.9,57.9L57.9,57.9z M59.6,59.7l-0.3-0.3l0,0c2.3-2.3,4-5.2,5-8.3l0,0l0.4,0.1l0,0
		C63.8,54.4,62,57.3,59.6,59.7L59.6,59.7z M61.4,61.4l-0.3-0.3l0,0c2.6-2.6,4.5-5.8,5.6-9.3l0,0l0.4,0.1l0,0
		C66,55.5,64,58.8,61.4,61.4L61.4,61.4z M63.1,63.2l-0.3-0.3l0,0c2.9-2.9,5-6.4,6.2-10.3l0,0l0.4,0.1l0,0
		C68.2,56.6,66.1,60.2,63.1,63.2L63.1,63.2z M64.9,64.9l-0.3-0.3l0,0c3.2-3.2,5.5-7.1,6.8-11.3l0,0l0.4,0.1l0,0
		C70.5,57.8,68.1,61.7,64.9,64.9L64.9,64.9z M66.6,66.7l-0.3-0.3l0,0c3.4-3.4,6-7.7,7.5-12.3l0,0l0.4,0.1l0,0
		C72.7,58.9,70.1,63.2,66.6,66.7L66.6,66.7z M68.4,68.4l-0.3-0.3l0,0c3.7-3.7,6.5-8.3,8.1-13.3l0,0l0.4,0.1l0,0
		C75,60,72.2,64.6,68.4,68.4L68.4,68.4z M70.1,70.2l-0.3-0.3l0,0c4-4,7-9,8.7-14.3l0,0l0.4,0.1l0,0C77.2,61.1,74.2,66.1,70.1,70.2
		L70.1,70.2z M71.9,72l-0.3-0.3l0,0c4.3-4.3,7.5-9.6,9.3-15.3l0,0l0.4,0.1l0,0C79.5,62.2,76.2,67.6,71.9,72L71.9,72z M83.7,57.2
		c-1.9,6.2-5.4,11.9-10,16.5l0,0l-0.3-0.3l0,0c4.6-4.6,8-10.2,9.9-16.3l0,0L83.7,57.2L83.7,57.2z M84.8,44.8L84.8,44.8
		c-0.1-8.6-2.7-16.7-7.8-23.5l0,0l0,0l0.7-0.5l0,0c5.2,7,7.9,15.2,8,24v0.1L84.8,44.8z M45.8,43.2c-1-0.4-2.1,0.1-2.6,1.1
		c-0.4,1,0.1,2.1,1.1,2.6c1,0.4,2.2-0.1,2.6-1.1C47.2,44.7,46.8,43.6,45.8,43.2z"/>
</g>
</svg>
