<?xml version="1.0" encoding="utf-8"?>
<!-- Generator: Adobe Illustrator 25.1.0, SVG Export Plug-In . SVG Version: 6.00 Build 0)  -->
<svg version="1.1" id="Layer_1" xmlns="http://www.w3.org/2000/svg" xmlns:xlink="http://www.w3.org/1999/xlink" x="0px" y="0px"
	 viewBox="0 0 120 150" style="enable-background:new 0 0 120 150;" xml:space="preserve">
<path d="M55.5,25.5c-15.7,0-28.7,4.9-33,11.9c0.6,1.6,1.3,3.3,2.2,5c3.6,6.5,14.5,13.1,30.8,13.1c16.3,0,27.2-6.5,30.8-12.9
	c0.5-0.9,1.4-3.3,2.1-5.5C83.9,30.4,71.1,25.5,55.5,25.5z M76.2,43.4c-1,0.5-2.2,0.2-2.7-0.8c-1.3-2.4-3.2-4.8-4.1-5.3
	c-0.8,0.5-1.9,3.7-2.6,5.4c-1.4,3.8-2.9,7.8-6.1,7.8c-0.2,0-0.4,0-0.6,0c-3.7-0.5-4-5.2-4.3-9.8c-0.1-1.8-0.3-5-0.9-5.9
	c-0.9,0.8-2,4.4-2.7,6.4c-1.5,4.8-3.1,9.7-7,9.3c-3.5-0.4-3.8-4.6-4.2-8.7c-0.1-1.4-0.3-3.7-0.7-4.8c-0.8,0.9-2,2.8-2.9,4.7
	c-0.5,1-1.7,1.4-2.7,1s-1.4-1.7-1-2.7c2.5-5.2,4.9-7.7,7.2-7.3c3.3,0.6,3.7,4.8,4,8.8c0.1,1.6,0.4,4.1,0.8,5c0.8-0.8,2-4.4,2.6-6.4
	c1.5-4.8,3.1-9.7,7-9.3c3.7,0.4,4,5.2,4.4,9.7c0.1,1.8,0.3,5,0.9,6c0.8-0.8,1.8-3.5,2.4-5.1c1.4-3.8,2.9-7.8,6.1-8
	c2.8-0.2,5.8,3.9,7.7,7.4C77.5,41.6,77.2,42.8,76.2,43.4z"/>
<path d="M96,54.2c-1.2-2.7-3.6-4.5-6.5-5.1c0.3-1.7,0.5-3.4,0.6-5.1c-0.1,0.2-0.2,0.5-0.3,0.6c-4.1,7.5-16.3,15-34.3,15
	c-19.2,0-30.5-8.2-34.3-15.2c-0.1-0.2-0.2-0.3-0.3-0.5c0.8,19.6,16,35.3,34.6,35.3c10.1,0,19.2-4.7,25.6-12c1.3,0.5,2.7,0.8,4.2,0.8
	c1.5,0,3.1-0.3,4.7-1C95.3,64.7,98,58.9,96,54.2z M88.2,63c-1,0.4-2,0.6-2.9,0.6c-0.5,0-0.9,0-1.4-0.1c2-3,3.6-6.4,4.7-10
	c1.6,0.3,2.9,1.2,3.5,2.5C93.1,58.5,91.3,61.6,88.2,63z"/>
<g>
	<path d="M55.5,79.2c10.1,0,19.2-4.7,25.6-12c0.9,0.4,1.8,0.6,2.8,0.7c-1.7-0.7-3.5-1.3-5.5-1.8c-0.8-0.2-1.6,0.1-2.1,0.7
		c-8,0.1-36.7,0.6-41.8,1.2c-1.2,0.1-2.2,0.3-3.2,0.6C37.5,75.1,46.1,79.2,55.5,79.2z"/>
	<path d="M90.1,71.2c-1.6,0.5-3.2,0.8-4.8,0.8c-1,0-2-0.1-2.9-0.3C75.2,79,65.5,83.2,55.5,83.2c-10.1,0-19.6-4.1-26.8-11.5
		c-0.4-0.4-0.8-0.9-1.2-1.3c-0.1,0.1-0.2,0.1-0.3,0.2c-0.1,0-0.1,0.1-0.2,0.1c-0.4,0.2-0.7,0.5-1.1,0.8c-0.1,0-0.1,0.1-0.2,0.1v0
		c-3.6,2.8-4.4,5.6-4.4,7.5c0,8.8,15.8,15.4,36.8,15.4c23.2,0,36.8-8.2,36.8-15.4C94.9,76.2,93.2,73.5,90.1,71.2z"/>
</g>
</svg>
