<?xml version="1.0" encoding="utf-8"?>
<!-- Generator: Adobe Illustrator 25.1.0, SVG Export Plug-In . SVG Version: 6.00 Build 0)  -->
<svg version="1.1" id="Layer_1" xmlns="http://www.w3.org/2000/svg" xmlns:xlink="http://www.w3.org/1999/xlink" x="0px" y="0px"
	 viewBox="0 0 96 113.8" style="enable-background:new 0 0 96 113.8;" xml:space="preserve">
<style type="text/css">
	.st0{fill-rule:evenodd;clip-rule:evenodd;}
</style>
<desc>Created with Sketch.</desc>
<g>
	<path class="st0" d="M17.6,62.2l-2.9,2.1c-0.1,0.1-0.2,0.1-0.4,0.2l-4.8,1c-0.2,0-0.5,0-0.7-0.1l-4-2.1c-0.3-0.2-0.5-0.5-0.5-0.9
		v-2.1c0-0.4,0.2-0.7,0.5-0.9l1-0.5v-3.4L2.1,45.3L1.2,42c-0.1-0.3,0-0.7,0.2-1l1-1.1l-2.3-3.1C0,36.6,0,36.2,0,35.9l1.9-6
		c0.1-0.2,0.2-0.4,0.4-0.5l6.4-4.2c0,0,2.1-0.7,6.1-2c0.1,0,1.2-0.1,3.5-0.2l2.6-4.1v-1.9c0-0.3,0.1-0.6,0.3-0.7l1.4-1.3
		c0.2-0.1,0.4-0.2,0.6-0.3l2.1-0.2l3.5-4.8c0.1-0.2,0.3-0.3,0.5-0.4l3.4-1.1c0.3-0.1,0.7,0,1,0.2l2.6,2.2H38l2.2-5.2
		c0.1-0.2,0.2-0.3,0.4-0.5l4.3-2.7c0.3-0.2,0.6-0.2,0.9-0.1l5.9,2.5l4.2-0.9c0.8-0.2,1.4,0.6,1.1,1.3l-2.4,6.3l3.8,3.4l5.4,2.9
		l1.5-2.4l0.4-6.3l1.7-8.3c0.2-0.9,1.4-1.1,1.8-0.3l2.9,4.7c0,0.1,0.1,0.2,0.1,0.2l1.2,4.2l2.3,1.1c0.3,0.1,0.5,0.4,0.5,0.6l1.5,5.3
		l1.1,3.9l5.6,3.8c0.2,0.1,0.4,0.3,0.4,0.6l0.5,2.1l3.4,2.8c0.1,0.1,0.2,0.2,0.3,0.3l1.8,3.9l3.6,3.6c0.2,0.2,0.3,0.4,0.3,0.6
		l1.2,7.9c0,0.1,0,0.2,0,0.3l-1.4,8.5c0,0.2-0.1,0.3-0.2,0.4l-3.8,5.3L88,67.9l-0.4,3.6c0,0.4-0.4,0.8-0.8,0.9l-5.1,1l-3.1,2.9
		c-0.3,0.3-0.8,0.4-1.2,0.1l-2.6-1.7l-1.7,1.7c-0.3,0.3-0.8,0.4-1.1,0.2L68,74.6l-4.2-0.7c-0.4-0.1-0.7-0.3-0.8-0.7l-2-6.3h-1.3
		c-0.5,0-0.9-0.4-1-0.9l-0.2-1.8l-1.2,1c-0.7,0.6-1.8-0.1-1.6-1l0.5-2.4l-2.1,2.2c-0.5,0.5-1.3,0.4-1.6-0.2l-2.8-4.9l-2.3-2.6h-2
		c-0.1,0-0.2,0-0.3-0.1l-2.2-0.7h-4l-4.3,1.6c-0.1,0-0.2,0.1-0.4,0.1h-3.5l-3.5,1.7l-0.4,2.2c-0.1,0.5-0.5,0.8-1,0.8H17.6z
		 M82.7,79.9c0.7-0.1,1.3,0.4,1.2,1.1l-1,7.2c0,0.3-0.2,0.5-0.4,0.7l-2.3,1.7c-0.2,0.1-0.4,0.2-0.6,0.2h-2.4c-0.4,0-0.7-0.2-0.9-0.5
		l-1.7-3.3c0-0.1-0.1-0.2-0.1-0.3l-1.2-5.8c-0.1-0.7,0.5-1.3,1.2-1.2l4.1,0.9L82.7,79.9z"/>
</g>
</svg>
