<?xml version="1.0" encoding="utf-8"?>
<!-- Generator: Adobe Illustrator 25.1.0, SVG Export Plug-In . SVG Version: 6.00 Build 0)  -->
<svg version="1.1" xmlns="http://www.w3.org/2000/svg" xmlns:xlink="http://www.w3.org/1999/xlink" x="0px" y="0px"
	 viewBox="0 0 100 125" style="enable-background:new 0 0 100 125;" xml:space="preserve">
<g id="Layer_2">
</g>
<g id="Layer_1">
	<g>
		<path d="M5273.1,2400.1v-2c0-2.8-5-4-9.7-4s-9.7,1.3-9.7,4v2c0,1.8,0.7,3.6,2,4.9l5,4.9c0.3,0.3,0.4,0.6,0.4,1v6.4
			c0,0.4,0.2,0.7,0.6,0.8l2.9,0.9c0.5,0.1,1-0.2,1-0.8v-7.2c0-0.4,0.2-0.7,0.4-1l5.1-5C5272.4,2403.7,5273.1,2401.9,5273.1,2400.1z
			 M5263.4,2400c-4.8,0-7.4-1.3-7.5-1.8l0,0c0.1-0.5,2.7-1.8,7.5-1.8s7.3,1.3,7.5,1.8C5270.7,2398.7,5268.2,2400,5263.4,2400z"/>
		<path d="M5268.4,2410.3c-0.6,0-1,0.4-1,1s0.4,1,1,1h4.3c0.6,0,1-0.4,1-1s-0.4-1-1-1H5268.4z"/>
		<path d="M5272.7,2413.7h-4.3c-0.6,0-1,0.4-1,1s0.4,1,1,1h4.3c0.6,0,1-0.4,1-1C5273.7,2414.1,5273.3,2413.7,5272.7,2413.7z"/>
		<path d="M5272.7,2417h-4.3c-0.6,0-1,0.4-1,1s0.4,1,1,1h4.3c0.6,0,1-0.4,1-1C5273.7,2417.5,5273.3,2417,5272.7,2417z"/>
	</g>
	<g>
		<path d="M90.7,46.3c-0.9-0.5-2.1-0.3-2.8,0.4c-3.8,3.8-9,5.6-14.4,5.1c-7.9-0.9-14.2-7.3-15.1-15.2c-0.6-5.4,1.2-10.6,5.1-14.4
			c0.8-0.8,0.9-1.9,0.4-2.8s-1.5-1.4-2.6-1.1C50,21,42.1,30.8,41.8,42.2c7.3,2.3,13,8.2,15,15.6c6.2,0.7,11.5,4.7,13.8,10.3
			c10.3-1.4,18.8-8.9,21.3-19.3C92.1,47.9,91.7,46.8,90.7,46.3z"/>
		<path d="M64.9,37.6l4.9,1.4c0.3,0.1,0.5,0.3,0.6,0.6l1.4,4.9c0.2,0.8,1.4,0.8,1.7,0l1.4-4.9c0.1-0.3,0.3-0.5,0.6-0.6l4.9-1.4
			c0.8-0.2,0.8-1.4,0-1.7l-4.9-1.4c-0.3-0.1-0.5-0.3-0.6-0.6L73.5,29c-0.2-0.8-1.4-0.8-1.7,0l-1.4,5c-0.1,0.3-0.3,0.5-0.6,0.6
			L64.9,36C64.1,36.2,64.1,37.4,64.9,37.6z"/>
		<path d="M73.7,22.5l4.5,1.3c0.3,0.1,0.5,0.3,0.5,0.5l1.3,4.5c0.2,0.8,1.3,0.8,1.5,0l1.3-4.5c0.1-0.3,0.3-0.5,0.5-0.5l4.5-1.3
			c0.8-0.2,0.8-1.3,0-1.5l-4.5-1.3c-0.3-0.1-0.5-0.3-0.5-0.5l-1.3-4.5c-0.2-0.8-1.3-0.8-1.5,0l-1.3,4.5c-0.1,0.3-0.3,0.5-0.5,0.5
			L73.7,21C72.9,21.2,72.9,22.3,73.7,22.5z"/>
		<path d="M97,32.9l-3.6-1c-0.2-0.1-0.4-0.2-0.4-0.4l-1-3.6c-0.2-0.6-1-0.6-1.2,0l-1,3.6c-0.1,0.2-0.2,0.4-0.4,0.4l-3.6,1
			c-0.6,0.2-0.6,1,0,1.2l3.6,1c0.2,0.1,0.4,0.2,0.4,0.4l1,3.6c0.2,0.6,1,0.6,1.2,0l1-3.6c0.1-0.2,0.2-0.4,0.4-0.4l3.6-1
			C97.7,33.9,97.7,33,97,32.9z"/>
		<path d="M54.8,63.9c-1.1,0-2.3,0.2-3.4,0.5c0-0.2,0-0.4,0-0.5c0-9.2-7.4-16.6-16.6-16.6c-7.5,0-13.8,5-15.9,11.9
			C18,58.9,17,58.8,16,58.8c-7.5,0-13.5,6-13.5,13.5c0,7.1,5.4,12.9,12.3,13.5c0.2,0,0.5,0.1,0.8,0.1h39.9c0.5,0,0.9-0.1,1.4-0.2
			c5.2-1,9-5.5,9-10.9C65.9,68.8,61,63.9,54.8,63.9z"/>
	</g>
</g>
</svg>
